<svg width="44" height="44" viewBox="0 0 44 44" fill="none" xmlns="http://www.w3.org/2000/svg">
<g id="akar-icons:discord-fill">
<path id="Vector" d="M37.2477 8.23537C34.4427 6.97037 31.4361 6.03537 28.2919 5.5037C28.2639 5.49832 28.2349 5.50179 28.209 5.51361C28.183 5.52544 28.1614 5.54504 28.1471 5.5697C27.7621 6.2462 27.3331 7.12803 27.0324 7.8247C23.6977 7.32647 20.3076 7.32647 16.9729 7.8247C16.638 7.05261 16.2604 6.29978 15.8417 5.5697C15.8275 5.54473 15.8061 5.52469 15.7802 5.51224C15.7543 5.4998 15.7253 5.49554 15.6969 5.50003C12.5546 6.0317 9.5479 6.9667 6.74107 8.23353C6.71692 8.24366 6.69645 8.26093 6.6824 8.28303C0.977071 16.6705 -0.586762 24.8509 0.181405 32.9285C0.183542 32.9483 0.189683 32.9675 0.199454 32.9848C0.209224 33.0021 0.22242 33.0173 0.238238 33.0294C3.56829 35.4538 7.28252 37.3007 11.2254 38.4927C11.2529 38.5012 11.2823 38.5011 11.3098 38.4926C11.3372 38.4841 11.3615 38.4675 11.3794 38.445C12.2279 37.3103 12.9797 36.1065 13.6271 34.8462C13.6361 34.829 13.6412 34.81 13.6423 34.7906C13.6433 34.7712 13.6401 34.7518 13.633 34.7337C13.6259 34.7156 13.6149 34.6993 13.6009 34.6858C13.587 34.6723 13.5702 34.662 13.5519 34.6555C12.3676 34.2095 11.2201 33.6713 10.1199 33.0459C10.1001 33.0346 10.0835 33.0186 10.0714 32.9993C10.0594 32.9799 10.0523 32.9579 10.0508 32.9352C10.0494 32.9125 10.0536 32.8898 10.0631 32.8691C10.0726 32.8484 10.0871 32.8304 10.1052 32.8167C10.3362 32.6462 10.5672 32.4684 10.7872 32.2905C10.807 32.2745 10.8309 32.2644 10.8561 32.2611C10.8814 32.2579 10.907 32.2617 10.9302 32.2722C18.1297 35.5062 25.9269 35.5062 33.0421 32.2722C33.0653 32.2611 33.0912 32.2568 33.1169 32.2597C33.1425 32.2626 33.1667 32.2726 33.1869 32.2887C33.4069 32.4684 33.6361 32.6462 33.8689 32.8167C33.8872 32.8301 33.902 32.8479 33.9118 32.8684C33.9216 32.8889 33.9261 32.9115 33.925 32.9342C33.9239 32.9569 33.9172 32.979 33.9055 32.9985C33.8938 33.018 33.8774 33.0343 33.8579 33.0459C32.7616 33.6765 31.6212 34.21 30.4241 34.6537C30.4057 34.6604 30.3889 34.6709 30.3749 34.6846C30.3609 34.6982 30.35 34.7147 30.3429 34.7329C30.3358 34.7512 30.3327 34.7707 30.3337 34.7902C30.3347 34.8097 30.3399 34.8288 30.3489 34.8462C31.0089 36.1057 31.7642 37.3047 32.5947 38.4432C32.612 38.4666 32.6361 38.484 32.6636 38.4932C32.6912 38.5024 32.7209 38.5029 32.7487 38.4945C36.6984 37.3059 40.4187 35.4581 43.7524 33.0294C43.7687 33.018 43.7823 33.0033 43.7924 32.9862C43.8026 32.9691 43.8089 32.9501 43.8111 32.9304C44.7277 23.5914 42.2747 15.477 37.3046 8.2867C37.2924 8.26333 37.2722 8.24512 37.2477 8.23537ZM14.7032 28.0097C12.5362 28.0097 10.7487 26.0499 10.7487 23.6464C10.7487 21.241 12.5014 19.283 14.7032 19.283C16.9216 19.283 18.6926 21.2575 18.6577 23.6464C18.6577 26.0517 16.9051 28.0097 14.7032 28.0097ZM29.3241 28.0097C27.1552 28.0097 25.3696 26.0499 25.3696 23.6464C25.3696 21.241 27.1204 19.283 29.3241 19.283C31.5424 19.283 33.3134 21.2575 33.2786 23.6464C33.2786 26.0517 31.5442 28.0097 29.3241 28.0097Z" fill="#F4D2B4"/>
</g>
</svg>
