<svg width="46" height="46" viewBox="0 0 46 46" fill="none" xmlns="http://www.w3.org/2000/svg">
<g id="Group">
<path id="Vector" d="M23 0.953247C10.8437 0.953247 0.951904 10.8422 0.951904 23C0.951904 35.1577 10.8437 45.0467 23 45.0467C35.1564 45.0467 45.0482 35.1577 45.0482 23C45.0482 10.8422 35.1564 0.953247 23 0.953247ZM23 43.5782C11.6535 43.5782 2.42315 34.3465 2.42315 23C2.42315 11.6535 11.6535 2.42175 23 2.42175C34.3465 2.42175 43.5769 11.6535 43.5769 23C43.5769 34.3465 34.3465 43.5782 23 43.5782Z" fill="#F4D2B4"/>
<path id="Vector_2" d="M27.8125 10.6251H24.144C19.4718 10.5783 18.875 13.4699 18.875 16.5994V18.8751H16.8125C16.7193 18.8626 16.6245 18.8718 16.5354 18.902C16.4463 18.9321 16.3653 18.9824 16.2988 19.0489C16.2323 19.1154 16.1821 19.1963 16.1519 19.2854C16.1218 19.3745 16.1126 19.4693 16.125 19.5626V23.6876C16.1126 23.7808 16.1218 23.8756 16.1519 23.9647C16.1821 24.0538 16.2323 24.1347 16.2988 24.2012C16.3653 24.2677 16.4463 24.318 16.5354 24.3482C16.6245 24.3783 16.7193 24.3875 16.8125 24.3751H18.875V34.6876C18.8636 34.7809 18.8736 34.8757 18.9044 34.9646C18.9351 35.0536 18.9858 35.1343 19.0526 35.2006C19.1193 35.2669 19.2003 35.3171 19.2894 35.3474C19.3785 35.3776 19.4733 35.3871 19.5666 35.3751H23.7673C24.1729 35.4218 24.5015 35.0932 24.3723 34.6876L24.375 24.3751H27.8125C27.9057 24.3875 28.0006 24.3783 28.0897 24.3482C28.1787 24.318 28.2597 24.2677 28.3262 24.2012C28.3927 24.1347 28.443 24.0538 28.4731 23.9647C28.5033 23.8756 28.5125 23.7808 28.5 23.6876V19.5626C28.5125 19.4693 28.5033 19.3745 28.4731 19.2854C28.443 19.1963 28.3927 19.1154 28.3262 19.0489C28.2597 18.9824 28.1787 18.9321 28.0897 18.902C28.0006 18.8718 27.9057 18.8626 27.8125 18.8751H24.3709L24.375 16.8126C24.5084 15.9339 24.5084 16.0769 25.3238 16.1251H27.7836C27.9748 16.0824 28.1783 16.1058 28.3213 15.9669C28.4643 15.8281 28.5468 15.6383 28.4986 15.4376V11.3126C28.5113 11.2194 28.5023 11.1246 28.4724 11.0355C28.4424 10.9464 28.3923 10.8654 28.3259 10.7989C28.2594 10.7323 28.1786 10.682 28.0895 10.6519C28.0005 10.6217 27.9057 10.6125 27.8125 10.6251ZM27.0769 14.6731L25.3526 14.6071C23.2173 14.6071 23.0385 15.7662 23.0385 16.9528L23.033 19.5598C23.0328 19.6563 23.0517 19.752 23.0885 19.8412C23.1253 19.9305 23.1794 20.0116 23.2476 20.0799C23.3158 20.1482 23.3968 20.2024 23.486 20.2394C23.5751 20.2764 23.6707 20.2954 23.7673 20.2954H27.125V22.9519H23.77C23.5752 22.9519 23.3883 23.0292 23.2503 23.1669C23.1124 23.3046 23.0348 23.4913 23.0344 23.6862L23.033 34.0001H20.25V23.6876C20.25 23.2819 19.9736 22.9533 19.5666 22.9533H17.5V20.2968H19.5666C19.6631 20.297 19.7587 20.2781 19.8479 20.2413C19.937 20.2045 20.0181 20.1505 20.0864 20.0823C20.2239 19.9434 20.2486 19.7564 20.2486 19.5612V16.5981C20.2486 13.5153 20.8715 12.0468 24.1426 12.0468H27.0755V14.6731H27.0769Z" fill="#F4D2B4"/>
</g>
</svg>
