<svg width="54" height="54" viewBox="0 0 54 54" fill="none" xmlns="http://www.w3.org/2000/svg">
<g id="ph:instagram-logo-thin">
<path id="Vector" d="M27 17.7188C25.1643 17.7188 23.3699 18.2631 21.8436 19.2829C20.3173 20.3028 19.1277 21.7523 18.4252 23.4482C17.7228 25.1441 17.539 27.0103 17.8971 28.8107C18.2552 30.6111 19.1392 32.2648 20.4372 33.5628C21.7352 34.8608 23.3889 35.7448 25.1893 36.1029C26.9897 36.461 28.8559 36.2772 30.5518 35.5748C32.2477 34.8723 33.6972 33.6827 34.7171 32.1564C35.7369 30.6301 36.2812 28.8357 36.2812 27C36.2812 24.5385 35.3034 22.1777 33.5628 20.4372C31.8223 18.6966 29.4615 17.7188 27 17.7188ZM27 34.5938C25.4981 34.5938 24.0299 34.1484 22.7811 33.314C21.5324 32.4796 20.559 31.2936 19.9843 29.906C19.4095 28.5184 19.2592 26.9916 19.5522 25.5185C19.8452 24.0455 20.5684 22.6924 21.6304 21.6304C22.6924 20.5684 24.0455 19.8452 25.5185 19.5522C26.9916 19.2592 28.5184 19.4095 29.906 19.9843C31.2936 20.559 32.4796 21.5324 33.314 22.7811C34.1484 24.0299 34.5938 25.4981 34.5938 27C34.5938 29.014 33.7937 30.9455 32.3696 32.3696C30.9455 33.7937 29.014 34.5938 27 34.5938ZM36.2812 6.75H17.7188C14.8097 6.75 12.0197 7.90563 9.96267 9.96267C7.90563 12.0197 6.75 14.8097 6.75 17.7188V36.2812C6.75 37.7217 7.03371 39.148 7.58495 40.4788C8.13618 41.8096 8.94413 43.0188 9.96267 44.0373C12.0197 46.0944 14.8097 47.25 17.7188 47.25H36.2812C37.7217 47.25 39.148 46.9663 40.4788 46.4151C41.8096 45.8638 43.0188 45.0559 44.0373 44.0373C45.0559 43.0188 45.8638 41.8096 46.4151 40.4788C46.9663 39.148 47.25 37.7217 47.25 36.2812V17.7188C47.25 16.2783 46.9663 14.852 46.4151 13.5212C45.8638 12.1904 45.0559 10.9812 44.0373 9.96267C43.0188 8.94413 41.8096 8.13618 40.4788 7.58495C39.148 7.03371 37.7217 6.75 36.2812 6.75ZM45.5625 36.2812C45.5625 38.7428 44.5847 41.1035 42.8441 42.8441C41.1035 44.5847 38.7428 45.5625 36.2812 45.5625H17.7188C15.2572 45.5625 12.8965 44.5847 11.1559 42.8441C9.41534 41.1035 8.4375 38.7428 8.4375 36.2812V17.7188C8.4375 15.2572 9.41534 12.8965 11.1559 11.1559C12.8965 9.41534 15.2572 8.4375 17.7188 8.4375H36.2812C38.7428 8.4375 41.1035 9.41534 42.8441 11.1559C44.5847 12.8965 45.5625 15.2572 45.5625 17.7188V36.2812ZM39.6562 16.0312C39.6562 16.365 39.5573 16.6913 39.3719 16.9688C39.1864 17.2463 38.9229 17.4626 38.6145 17.5903C38.3062 17.718 37.9669 17.7514 37.6395 17.6863C37.3122 17.6212 37.0115 17.4605 36.7755 17.2245C36.5395 16.9885 36.3788 16.6878 36.3137 16.3605C36.2486 16.0331 36.282 15.6938 36.4097 15.3855C36.5374 15.0771 36.7537 14.8136 37.0312 14.6281C37.3087 14.4427 37.635 14.3438 37.9688 14.3438C38.4163 14.3438 38.8455 14.5215 39.162 14.838C39.4785 15.1545 39.6562 15.5837 39.6562 16.0312Z" fill="#F4D2B4"/>
</g>
</svg>
