<svg width="46" height="46" viewBox="0 0 46 46" fill="none" xmlns="http://www.w3.org/2000/svg">
<g id="Group">
<path id="Vector" d="M23 0.953247C10.8437 0.953247 0.951904 10.8422 0.951904 23C0.951904 35.1577 10.8437 45.0467 23 45.0467C35.1564 45.0467 45.0482 35.1577 45.0482 23C45.0482 10.8422 35.1564 0.953247 23 0.953247ZM23 43.5782C11.6535 43.5782 2.42315 34.3465 2.42315 23C2.42315 11.6535 11.6535 2.42175 23 2.42175C34.3465 2.42175 43.5769 11.6535 43.5769 23C43.5769 34.3465 34.3465 43.5782 23 43.5782Z" fill="#F4D2B4"/>
<path id="Vector_2" d="M35.0917 16.1882C35.2442 15.9059 35.3699 15.6099 35.4671 15.3041C35.5121 15.1623 35.513 15.0101 35.4697 14.8677C35.4264 14.7254 35.3409 14.5995 35.2246 14.5067C35.1083 14.4139 34.9665 14.3585 34.8181 14.348C34.6697 14.3374 34.5215 14.3721 34.3932 14.4475C33.6886 14.8661 32.9259 15.1779 32.13 15.3729C31.1637 14.5008 29.9088 14.0174 28.6072 14.0157C27.9001 14.0163 27.2003 14.1596 26.5499 14.4371C25.8995 14.7146 25.3118 15.1206 24.8221 15.6308C24.3324 16.1409 23.9507 16.7446 23.7 17.4058C23.4493 18.067 23.3346 18.7721 23.363 19.4786C20.2706 19.0893 17.4468 17.5245 15.4773 15.1089C15.4019 15.0174 15.3054 14.9454 15.1962 14.8991C15.087 14.8529 14.9682 14.8336 14.85 14.8431C14.7318 14.8525 14.6175 14.8904 14.5171 14.9534C14.4166 15.0164 14.3328 15.1028 14.2728 15.2051C13.8219 15.9791 13.5767 16.8558 13.5609 17.7515C13.545 18.6472 13.7588 19.532 14.1821 20.3215C14.0783 20.339 13.9786 20.3754 13.8878 20.4287C13.7767 20.4996 13.6851 20.5974 13.6217 20.713C13.5582 20.8286 13.5249 20.9583 13.5248 21.0901C13.5248 22.6507 14.2192 24.0835 15.3385 25.057L15.2903 25.1051C15.2058 25.2007 15.1477 25.3167 15.1217 25.4416C15.0956 25.5665 15.1026 25.696 15.1418 25.8174C15.3752 26.5455 15.7649 27.2138 16.2836 27.7755C16.8024 28.3372 17.4376 28.7787 18.1448 29.0692C16.6923 29.7778 15.0667 30.0542 13.4616 29.8654C13.2966 29.8486 13.1307 29.8869 12.9898 29.9745C12.849 30.0621 12.7412 30.194 12.6833 30.3494C12.6277 30.5059 12.6267 30.6767 12.6804 30.834C12.734 30.9912 12.8392 31.1257 12.979 31.2156C15.1611 32.6161 17.6997 33.3602 20.2926 33.3592C28.7901 33.3592 33.8693 26.4567 33.8693 19.7839L33.868 19.5584C34.6915 18.9154 35.4068 18.1449 35.9868 17.2759C36.0747 17.1445 36.1178 16.9883 36.11 16.8305C36.1022 16.6727 36.0437 16.5216 35.9433 16.3995C35.8429 16.2775 35.7058 16.1911 35.5524 16.153C35.3991 16.115 35.2375 16.1273 35.0917 16.1882ZM32.6923 18.6014C32.5925 18.6731 32.5123 18.7687 32.459 18.8795C32.4057 18.9902 32.381 19.1125 32.3871 19.2352C32.3953 19.4167 32.3995 19.601 32.3995 19.7825C32.3995 25.7335 27.8716 31.8894 20.294 31.8894C18.9425 31.89 17.6005 31.6632 16.3243 31.2184C17.8528 30.9255 19.2886 30.27 20.5112 29.3071C20.6302 29.2133 20.7173 29.085 20.7607 28.9397C20.804 28.7945 20.8014 28.6394 20.7532 28.4957C20.7051 28.352 20.6137 28.2267 20.4916 28.1369C20.3696 28.0471 20.2227 27.9972 20.0712 27.994C19.4783 27.9827 18.8964 27.8322 18.3724 27.5546C17.8484 27.2771 17.3969 26.8803 17.0545 26.3962C17.4023 26.3729 17.7433 26.3151 18.0747 26.2257C18.2351 26.1828 18.3762 26.0868 18.475 25.9534C18.5738 25.82 18.6244 25.657 18.6187 25.4911C18.6129 25.3251 18.5511 25.1661 18.4433 25.0398C18.3356 24.9135 18.1882 24.8275 18.0252 24.7957C17.3556 24.6595 16.7356 24.3439 16.2316 23.8825C15.7276 23.4211 15.3585 22.8314 15.1638 22.1764C15.5296 22.2685 15.905 22.3221 16.2803 22.3345C16.6035 22.3331 16.9032 22.1351 17.0036 21.8244C17.104 21.5136 16.9857 21.1712 16.7121 20.9897C16.0651 20.5587 15.567 19.9384 15.2857 19.2137C15.0044 18.4889 14.9537 17.695 15.1405 16.9404C17.5289 19.3911 20.754 20.8504 24.1715 21.0269C24.4135 21.0282 24.6252 20.9416 24.7723 20.7642C24.9195 20.5869 24.9758 20.3517 24.9236 20.1262C24.7355 19.3164 24.8196 18.4671 25.1629 17.7098C25.5062 16.9526 26.0894 16.3296 26.8225 15.9372C27.5555 15.5449 28.3974 15.4051 29.2179 15.5394C30.0384 15.6738 30.7917 16.0748 31.3613 16.6805C31.4467 16.7716 31.5538 16.8394 31.6727 16.8777C31.7915 16.9159 31.9181 16.9233 32.0406 16.8991C32.2675 16.8537 32.4916 16.8015 32.713 16.741C32.6132 16.8157 32.5094 16.885 32.4022 16.9486C32.2596 17.036 32.151 17.1693 32.0944 17.3266C32.0377 17.4839 32.0363 17.6558 32.0904 17.814C32.1446 17.9722 32.251 18.1073 32.3921 18.1969C32.5333 18.2866 32.7007 18.3254 32.867 18.3071L33.1172 18.2755C32.9794 18.389 32.8377 18.4977 32.6923 18.6014Z" fill="#F4D2B4"/>
</g>
</svg>
